<?xml version="1.0"?>
<!DOCTYPE svg PUBLIC "-//W3C//DTD SVG 1.1//EN" "http://www.w3.org/Graphics/SVG/1.1/DTD/svg11.dtd">
<svg width="850.0mm" height="1270.0mm" viewBox="-15.0 -15.0 835.0 1255.0" xmlns="http://www.w3.org/2000/svg" version="1.1">
<g transform=" scale(1,-1)">
<path id="Sketch001" d="M 0.0 0.0 L 0.0 15.0 L 0.0 -1255.0 L 820.0 -1255.0 L 820.0 -1240.0 L 0.0 -1240.0 L 0.0 -1255.0 L -15.0 -1255.0 L -15.0 15.0 L 0.0 15.0 L 820.0 15.0 L 820.0 -1255.0 L 835.0 -1255.0 L 835.0 15.0 L 820.0 15.0 L 820.0 0.0 L 0.0 0.0 " fill="black"/>
<!--path id="Sketch001" d="M 0.0 0.0 L 820.0 0.0 L 820.0 -1240.0 L 0.0 -1240.0 L 0.0 0.0 " fill="black"/-->
<path id="Sketch001" d="M 416.0 -660.0 L 416.0 -619.0 L 397.0 -619.0 L 397.0 -660.0 L 820.0 -660.0 L 820.0 -680.0 L 397.0 -680.0 L 397.0 -660.0 " fill="black"/>
<path id="Sketch001" d="M 0.0 -420.0 L 254.0 -420.0 L 254.0 -400.0 L 0.0 -400.0 L 44.0 -400.0 L 44.0 -220.30249 L 0.0 -220.30249 " fill="black"/>
<path id="Sketch001" d="M 457.0 -257.520196288 L 416.0 -257.520196288 L 416.0 -534.0 L 397.0 -534.0 L 397.0 -237.520196288 L 457.0 -237.520196288 L 457.0 -420.0 L 457.0 -400.0 L 416.0 -400.0 L 416.0 -420.0 L 457.0 -420.0 L 482.0 -420.0 L 482.0 -320.0 L 482.0 0.0 L 457.0 0.0 L 457.0 -237.520196288 " fill="black"/>
<path id="Sketch001" d="M 329.0 -400.0 L 397.0 -400.0 L 397.0 -420.0 L 329.0 -420.0 L 329.0 -400.0 " fill="black"/>
<path id="Sketch001" d="M 564.0 -420.0 L 591.0 -420.0 L 591.0 -400.0 L 611.0 -400.0 L 820.0 -400.0 L 820.0 -420.0 L 611.0 -420.0 L 611.0 -400.0 L 611.0 -546.0 L 591.0 -546.0 L 591.0 -400.0 L 564.0 -400.0 L 564.0 -420.0 " fill="black"/>
<path id="Sketch001" d="M 564.0 -320.0 L 820.0 -320.0 L 820.0 -300.0 L 564.0 -300.0 L 564.0 -320.0 " fill="black"/>
<!--path id="Sketch001" d="M -15.0 15.0 L 835.0 15.0 L 835.0 -1255.0 L -15.0 -1255.0 L -15.0 15.0 " fill="black"/-->
</g>
</svg>
