<?xml version="1.0"?>
<!DOCTYPE svg PUBLIC "-//W3C//DTD SVG 1.1//EN" "http://www.w3.org/Graphics/SVG/1.1/DTD/svg11.dtd">
<svg width="850.0mm" height="1270.0mm" viewBox="-15.0 -15.0 835.0 1255.0" xmlns="http://www.w3.org/2000/svg" version="1.1">
<g transform=" scale(1,-1)">
<path id="Sketch003" d="M 0.0 0.0 L 0.0 15.0 L 0.0 -1255.0 L 820.0 -1255.0 L 820.0 -1240.0 L 0.0 -1240.0 L 0.0 -1255.0 L -15.0 -1255.0 L -15.0 15.0 L 0.0 15.0 L 820.0 15.0 L 820.0 -1255.0 L 835.0 -1255.0 L 835.0 15.0 L 820.0 15.0 L 820.0 0.0 L 0.0 0.0 " fill="black"/>
<!--path id="Sketch002" d="M 0.0 0.0 L 820.0 0.0 L 820.0 -1240.0 L 0.0 -1240.0 L 0.0 0.0 " fill="black"/-->
<path id="Sketch002" d="M 400.0 0.0 L 420.0 0.0 L 420.0 -30.0 L 400.0 -30.0 L 400.0 0.0 " fill="black"/>
<path id="Sketch002" d="M 400.0 -114.0 L 420.0 -114.0 L 420.0 -690.0 L 463.0 -690.0 L 463.0 -670.0 L 420.0 -670.0 L 420.0 -690.0 L 400.0 -690.0 L 400.0 -114.0 " fill="black"/>
<path id="Sketch002" d="M 420.0 -320.0 L 463.0 -320.0 L 463.0 -300.0 L 420.0 -300.0 L 420.0 -320.0 " fill="black"/>
<path id="Sketch002" d="M 548.0 -690.000000002 L 820.0 -690.000000002 L 820.0 -670.000000002 L 548.0 -670.000000002 L 548.0 -690.000000002 " fill="black"/>
<path id="Sketch002" d="M 547.0 -300.0 L 595.0 -300.0 L 615.0 -300.0 L 739.172244875 -300.0 L 739.172244875 -320.0 L 719.172244875 -320.0 L 719.172244875 -380.0 L 739.172244875 -380.0 L 739.172244875 -320.0 L 615.0 -320.0 L 615.0 -300.0 L 615.0 -400.0 L 820.0 -400.0 L 820.0 -380.0 L 615.0 -380.0 L 615.0 -400.0 L 595.0 -400.0 L 595.0 -300.0 L 595.0 -320.0 L 547.0 -320.0 L 547.0 -300.0 " fill="black"/>
<path id="Sketch002" d="M -5.55111512313e-17 -517.0 L 284.0 -517.0 L 284.0 -577.0 L -2.77555756156e-17 -577.0 L -5.55111512313e-17 -517.0 " fill="black"/>
<!--path id="Sketch002" d="M 835.0 15.0 L -15.0 15.0 L -15.0 -1255.0 L 835.0 -1255.0 L 835.0 15.0 " fill="black"/-->
</g>
</svg>
