<?xml version="1.0"?>
<!DOCTYPE svg PUBLIC "-//W3C//DTD SVG 1.1//EN" "http://www.w3.org/Graphics/SVG/1.1/DTD/svg11.dtd">
<svg width="820.0mm" height="1240.0mm" viewBox="0 0 820.0 1240.0" xmlns="http://www.w3.org/2000/svg" version="1.1">
<g transform=" scale(1,-1)">
<path id="Sketch003" d="M 0.0 0.0 L 820.0 0.0 L 820.0 -1240.0 L 0.0 -1240.0 L 0.0 0.0 " fill="none" stroke="black" stroke-width="1"/>
<path id="Sketch003" d="M 400.0 0.0 L 420.0 0.0 L 420.0 -206.0 L 400.0 -206.0 L 400.0 0.0 " fill="black"/>
<path id="Sketch003" d="M 400.0 -288.0 L 420.0 -288.0 L 420.0 -497.0 L 400.0 -497.0 L 400.0 -288.0 " fill="black"/>
<path id="Sketch003" d="M 420.0 -300.0 L 475.0 -300.0 L 475.0 -414.0 L 420.0 -414.0 L 420.0 -300.0 " fill="black"/>
<path id="Sketch003" d="M 400.0 -582.0 L 420.0 -582.0 L 420.0 -837.0 L 400.0 -837.0 L 400.0 -582.0 " fill="black"/>
<path id="Sketch003" d="M 400.0 -592.0 L 0.0 -592.0 L 0.0 -654.0 L 400.0 -654.0 L 400.0 -592.0 " fill="black"/>
<path id="Sketch003" d="M 820.0 -300.0 L 559.0 -300.0 L 559.0 -313.496052177 L 820.0 -313.496052177 L 820.0 -300.0 L 820.0 -202.844864 L 787.0 -202.844864 L 787.0 -300.0 L 820.0 -300.0 " fill="black"/>
<path id="Sketch003" d="M 559.0 -414.0 L 820.0 -414.0 L 820.0 -511.0 L 631.019165 -511.0 L 631.019165 -414.0 L 820.0 -414.0 L 820.0 -398.496052177 L 559.0 -398.496052177 L 559.0 -414.0 " fill="black"/>
<path id="Sketch003" d="M 400.0 -922.0 L 420.0 -922.0 L 420.0 -1240.0 L 400.0 -1240.0 L 400.0 -922.0 " fill="black"/>
<path id="Sketch003" d="M 420.0 -964.0 L 469.0 -964.0 L 469.0 -967.0 L 420.0 -967.0 L 420.0 -964.0 " fill="black"/>
<path id="Sketch003" d="M 620.0 -924.0 L 630.0 -924.0 L 630.0 -1240.0 L 620.0 -1240.0 L 620.0 -924.0 " fill="black"/>
<path id="Sketch003" d="M 620.0 -964.0 L 572.0 -964.0 L 572.0 -967.0 L 620.0 -967.0 L 620.0 -964.0 " fill="black"/>
<path id="Sketch003" d="M 620.0 -880.555237 L 629.912231 -880.555237 L 820.0 -880.555237 L 820.0 -871.621820288 L 629.912231 -871.621820288 L 629.912231 -880.555237 L 629.912231 -657.0 L 637.000921712 -657.0 L 637.000921712 -665.179410396 L 629.912231 -665.179410396 L 629.912231 -657.0 L 620.0 -657.0 L 620.0 -880.555237 " fill="black"/>
<path id="Sketch003" d="M 722.000921712 -657.0 L 729.0 -657.0 L 729.0 -665.179410396 L 736.742110486 -665.179410396 L 820.0 -665.179410396 L 820.0 -658.130249 L 736.742110486 -658.130249 L 736.742110486 -665.179410396 L 736.742110486 -649.0 L 729.0 -649.0 L 729.0 -665.179410396 L 722.000921712 -665.179410396 L 722.000921712 -657.0 " fill="black"/>
<path id="Sketch003" d="M 729.0 -569.0 L 736.742110486 -569.0 L 736.742110486 -511.0 L 729.0 -511.0 L 729.0 -569.0 " fill="black"/>
<path id="Sketch003" d="M 742.454163 -665.179410396 L 734.3573 -665.179410396 L 734.3573 -675.663787649 L 742.454163 -675.663787649 L 742.454163 -665.179410396 " fill="black"/>
<path id="Sketch003" d="M 734.3573 -760.663787649 L 742.602356 -760.663787649 L 742.602356 -871.621820288 L 734.3573 -871.621820288 L 734.3573 -760.663787649 " fill="black"/>
</g>
</svg>
